<?xml version="1.0" standalone="no"?>
<!DOCTYPE svg PUBLIC "-//W3C//DTD SVG 20010904//EN"
 "http://www.w3.org/TR/2001/REC-SVG-20010904/DTD/svg10.dtd">
<svg version="1.0" xmlns="http://www.w3.org/2000/svg"
 width="2083.000000pt" height="2083.000000pt" viewBox="0 0 2083.000000 2083.000000"
 preserveAspectRatio="xMidYMid meet">
<metadata>
Created by potrace 1.11, written by Peter Selinger 2001-2013
</metadata>
<g transform="translate(0.000000,2083.000000) scale(0.100000,-0.100000)"
fill="#000000" stroke="none">
<path d="M11675 20645 c-297 -47 -612 -203 -865 -428 -98 -87 -167 -164 -312
-348 -45 -59 -191 -241 -323 -405 -942 -1171 -1609 -2242 -2120 -3404 -620
-1409 -1076 -3235 -1210 -4850 -31 -379 -36 -486 -42 -945 -9 -720 19 -1189
108 -1809 16 -115 28 -211 25 -213 -4 -4 -86 413 -115 592 -94 568 -131 997
-138 1610 -7 568 9 904 68 1435 70 642 213 1417 390 2124 27 109 49 200 47
201 -2 1 -75 49 -163 106 -539 351 -1008 697 -1284 948 -333 301 -638 651
-959 1102 -98 137 -116 170 -148 260 -20 57 -73 187 -119 289 -46 102 -106
237 -134 300 -102 227 -260 477 -374 591 -41 41 -113 99 -160 129 l-86 55 -62
130 c-34 71 -81 184 -104 250 -71 203 -146 326 -265 439 -169 159 -342 233
-570 243 -148 6 -276 -16 -424 -73 -342 -132 -644 -447 -929 -969 -200 -369
-423 -937 -516 -1315 -117 -477 -157 -898 -148 -1573 9 -690 81 -1322 228
-1987 73 -331 90 -383 198 -596 93 -186 110 -224 146 -329 8 -22 37 -105 65
-185 29 -80 60 -170 70 -200 10 -30 39 -113 65 -185 26 -71 55 -156 65 -188
44 -139 511 -876 975 -1537 152 -217 303 -431 325 -460 15 -19 116 -159 226
-310 539 -745 1132 -1514 1415 -1835 296 -336 1108 -1233 1978 -2184 l424
-464 -204 105 c-112 58 -258 138 -324 178 -66 40 -174 102 -240 138 -144 78
-275 159 -410 255 -106 75 -1095 824 -1302 987 -67 52 -191 139 -275 192 -285
181 -363 259 -491 490 -114 207 -162 258 -239 258 -86 0 -105 -113 -37 -225
46 -77 236 -275 329 -344 42 -31 140 -96 219 -146 163 -103 423 -296 726 -538
115 -93 295 -229 400 -303 174 -123 353 -253 695 -504 203 -149 299 -204 767
-441 419 -211 534 -271 560 -291 8 -7 -13 -28 -70 -72 -45 -34 -104 -90 -132
-124 l-50 -62 -255 4 c-215 4 -311 11 -615 46 -601 68 -1084 139 -1605 235
-292 53 -423 89 -659 177 -142 52 -278 95 -400 124 -203 50 -214 53 -676 241
-176 71 -381 153 -455 182 -85 33 -184 81 -265 130 -152 92 -188 105 -263 99
-47 -4 -60 -10 -84 -37 -35 -39 -36 -81 -5 -135 35 -61 77 -77 229 -87 208
-14 301 -41 585 -172 425 -197 1105 -404 1873 -571 546 -118 874 -174 1350
-231 162 -19 387 -47 500 -62 156 -20 264 -27 448 -31 244 -4 244 -4 238 -26
-70 -244 -35 -400 100 -452 34 -13 63 -16 127 -11 45 3 89 8 98 11 12 5 50
-32 142 -137 168 -192 290 -295 490 -413 191 -113 296 -144 506 -149 85 -2
179 -9 210 -16 64 -13 71 -19 185 -174 40 -55 109 -135 152 -179 72 -71 92
-85 219 -146 77 -37 217 -100 310 -140 161 -69 172 -75 210 -123 76 -98 391
-403 507 -492 64 -50 172 -123 240 -164 68 -41 299 -190 513 -331 458 -302
610 -394 838 -506 120 -59 182 -96 222 -132 160 -147 611 -294 905 -295 204 0
274 40 320 184 27 83 29 223 6 312 -39 142 -151 285 -267 339 -114 54 -306
101 -552 137 -136 20 -139 21 -190 63 -198 163 -360 301 -471 402 -71 64 -181
154 -245 200 -329 237 -1100 720 -1454 912 -45 24 -71 42 -57 39 14 -3 227
-43 473 -90 584 -111 680 -132 937 -205 662 -187 1262 -319 1890 -415 327 -50
788 -128 1375 -234 1122 -202 1596 -278 2115 -335 503 -57 827 -76 1258 -76
662 0 926 46 1275 221 239 120 422 267 562 454 103 136 157 259 220 499 54
203 66 304 58 491 -9 225 7 304 103 518 75 167 96 261 101 472 8 271 -27 568
-182 1580 -46 303 -91 607 -100 677 -19 157 -30 188 -107 307 -116 179 -186
364 -307 816 -119 442 -219 740 -328 975 -34 72 -61 109 -183 245 -180 200
-515 536 -638 638 -51 42 -148 114 -215 159 -66 44 -175 122 -241 171 -67 49
-139 98 -161 107 -84 36 -198 52 -485 71 l-175 11 -55 38 c-112 76 -245 127
-395 150 -196 30 -816 27 -1108 -5 -301 -33 -463 -70 -709 -164 -174 -67 -359
-126 -430 -140 l-47 -8 96 101 c372 394 616 813 703 1211 51 235 66 606 35
869 -62 533 -266 1059 -589 1519 -76 109 -108 150 -290 371 -239 291 -485 640
-681 967 -129 215 -343 639 -431 854 -173 422 -302 885 -368 1315 -14 91 -62
518 -106 950 -165 1607 -205 1912 -282 2129 -85 240 -241 460 -389 548 -102
61 -209 75 -374 48z m-4728 -12447 c-3 -7 -5 -2 -5 12 0 14 2 19 5 13 2 -7 2
-19 0 -25z"/>
</g>
</svg>
